<?xml version="1.0" encoding="utf-8"?>
<!-- Generator: Adobe Illustrator 24.1.1, SVG Export Plug-In . SVG Version: 6.00 Build 0)  -->
<svg version="1.1" id="Capa_1" xmlns="http://www.w3.org/2000/svg" xmlns:xlink="http://www.w3.org/1999/xlink" x="0px" y="0px"
	 viewBox="0 0 895 315" style="enable-background:new 0 0 895 315;" xml:space="preserve">
<style type="text/css">
	.st0{fill:#5B2080;}
	.st1{fill:none;stroke:#FFFFFF;stroke-width:17;stroke-linecap:round;stroke-miterlimit:10;}
	.st2{fill:none;stroke:#FFFFFF;stroke-width:16;stroke-linecap:round;stroke-miterlimit:10;}
	.st3{font-family:'Kanit-Bold';}
	.st4{font-size:142.1245px;}
</style>
<g>
	<path class="st0" d="M301.85,264.21H132.21c-72.17,0-130.68-58.5-130.68-130.67l0,0C1.53,61.37,60.04,2.86,132.21,2.86h169.65
		c72.16,0,130.67,58.51,130.67,130.68l0,0C432.53,205.71,374.02,264.21,301.85,264.21z"/>
</g>
<path class="st0" d="M97.03,306.13v-78.8c0-3.8,3.98-6.28,7.39-4.61l62.14,30.35c3.41,1.67,3.9,6.33,0.9,8.67l-62.14,48.45
	C101.95,312.81,97.03,310.41,97.03,306.13z"/>
<g>
	<line class="st1" x1="166.03" y1="86.36" x2="116.53" y2="135.86"/>
	<line class="st1" x1="166.03" y1="183.36" x2="117.53" y2="136.86"/>
</g>
<line class="st2" x1="237.53" y1="85.86" x2="195.53" y2="183.86"/>
<g>
	<line class="st1" x1="267.14" y1="183.47" x2="316.53" y2="134.07"/>
	<line class="st1" x1="267.13" y1="86.68" x2="315.53" y2="133.07"/>
</g>
<text transform="matrix(0.8113 0 0 1 447.062 182.8242)" class="st3 st4">MI BLOG</text>
</svg>
