<?xml version="1.0" encoding="utf-8"?>
<!-- Generator: Adobe Illustrator 24.1.1, SVG Export Plug-In . SVG Version: 6.00 Build 0)  -->
<svg version="1.1" id="Capa_1" xmlns="http://www.w3.org/2000/svg" xmlns:xlink="http://www.w3.org/1999/xlink" x="0px" y="0px"
	 viewBox="0 0 1080 1080" style="enable-background:new 0 0 1080 1080;" xml:space="preserve">
<style type="text/css">
	.st0{fill:#5B2080;}
	.st1{fill:none;stroke:#FFFFFF;stroke-width:17;stroke-linecap:round;stroke-miterlimit:10;}
	.st2{fill:none;stroke:#FFFFFF;stroke-width:16;stroke-linecap:round;stroke-miterlimit:10;}
</style>
<g>
	<path class="st0" d="M624.92,645.94H455.27c-72.17,0-130.68-58.51-130.68-130.68v0c0-72.17,58.51-130.68,130.68-130.68h169.65
		c72.17,0,130.68,58.51,130.68,130.68v0C755.6,587.43,697.09,645.94,624.92,645.94z"/>
</g>
<path class="st0" d="M420.1,687.86v-78.8c0-3.8,3.98-6.28,7.39-4.61l62.14,30.35c3.41,1.67,3.9,6.33,0.9,8.67l-62.14,48.45
	C425.02,694.54,420.1,692.13,420.1,687.86z"/>
<g>
	<line class="st1" x1="489.1" y1="468.08" x2="439.6" y2="517.58"/>
	<line class="st1" x1="489.1" y1="565.08" x2="440.6" y2="518.58"/>
</g>
<line class="st2" x1="560.6" y1="467.58" x2="518.6" y2="565.58"/>
<g>
	<line class="st1" x1="590.2" y1="565.19" x2="639.59" y2="515.8"/>
	<line class="st1" x1="590.2" y1="468.4" x2="638.6" y2="514.8"/>
</g>
</svg>
