<?xml version="1.0" encoding="utf-8"?>
<!-- Generator: Adobe Illustrator 23.1.0, SVG Export Plug-In . SVG Version: 6.00 Build 0)  -->
<svg version="1.1" id="Capa_1" xmlns="http://www.w3.org/2000/svg" xmlns:xlink="http://www.w3.org/1999/xlink" x="0px" y="0px"
	 viewBox="0 0 1080 1080" style="enable-background:new 0 0 1080 1080;" xml:space="preserve">
<style type="text/css">
	.st0{fill:#5B2080;}
	.st1{fill:none;stroke:#FFFFFF;stroke-width:17;stroke-linecap:round;stroke-miterlimit:10;}
	.st2{fill:none;stroke:#FFFFFF;stroke-width:16;stroke-linecap:round;stroke-miterlimit:10;}
</style>
<g>
	<path class="st0" d="M368.3,645.3H198.7C126.5,645.3,68,586.8,68,514.7l0,0C68,442.5,126.5,384,198.7,384h169.6
		c72.2,0,130.7,58.5,130.7,130.7l0,0C499,586.8,440.5,645.3,368.3,645.3z"/>
</g>
<path class="st0" d="M163.5,687.3v-78.8c0-3.8,4-6.3,7.4-4.6l62.1,30.3c3.4,1.7,3.9,6.3,0.9,8.7l-62.1,48.5
	C168.4,694,163.5,691.5,163.5,687.3z"/>
<g>
	<line class="st1" x1="232.5" y1="467.5" x2="183" y2="517"/>
	<line class="st1" x1="232.5" y1="564.5" x2="184" y2="518"/>
</g>
<line class="st2" x1="304" y1="467" x2="262" y2="565"/>
<g>
	<line class="st1" x1="333.6" y1="564.6" x2="383" y2="515.2"/>
	<line class="st1" x1="333.6" y1="467.8" x2="382" y2="514.2"/>
</g>
<g>
	<path d="M553.2,576.6V456.3h36.6l10.1,73.3l10-73.3h37v120.3h-22V490l-13.8,86.7h-21.6L574.9,490v86.7H553.2z"/>
	<path d="M657.1,467.8v-20.4h24.5v20.4H657.1z M657.1,576.6V474.1h24.5v102.5H657.1z"/>
	<path d="M765,577.7c-4,0-7.3-1-9.8-3s-4.5-5-6-9.1v10.9h-24.9V456.3h24.9V485c1.5-3.8,3.6-6.7,6.3-8.9s6.5-3.2,11.5-3.2
		c6.7,0,11.4,2.4,14.2,7.3c2.8,4.9,4.1,11.3,4.1,19.1v50.5c0,5.2-0.7,10-2.2,14.2c-1.4,4.2-3.7,7.5-6.6,10
		C773.5,576.5,769.7,577.7,765,577.7z M754.9,558.7c2.6,0,4.2-1.3,4.7-3.8s0.8-5.7,0.8-9.4v-40.1c0-3.8-0.3-6.9-0.8-9.5
		s-2.1-3.8-4.7-3.8c-2.6,0-4.3,1.3-4.8,3.9c-0.6,2.6-0.9,5.7-0.9,9.4v40.1c0,3.7,0.3,6.8,0.9,9.4
		C750.7,557.4,752.3,558.7,754.9,558.7z"/>
	<path d="M794.3,576.6V456.3h24.9v120.3H794.3z"/>
	<path d="M858.8,577.7c-20.4,0-30.6-10.6-30.6-31.8v-41.1c0-9.7,2.7-17.4,8.1-23.1c5.4-5.8,12.9-8.6,22.5-8.6
		c9.6,0,17.1,2.9,22.6,8.6c5.4,5.8,8.1,13.5,8.1,23.1v41.2C889.5,567.1,879.3,577.7,858.8,577.7z M858.8,558.8c2,0,3.5-0.7,4.4-2.2
		c0.9-1.5,1.3-3.4,1.3-5.6v-50.1c0-6-1.9-9-5.7-9s-5.7,3-5.7,9V551c0,2.3,0.4,4.2,1.3,5.6C855.3,558.1,856.8,558.8,858.8,558.8z"/>
	<path d="M926.2,594.4c-4.7,0-8.8-0.2-12.2-0.7c-3.4-0.5-6.4-1.3-9.1-2.6s-5.4-3-8.1-5.2l8.3-14.2c6,3.5,11.9,5.3,17.9,5.3
		c3.9,0,6.8-1.3,8.8-3.8s2.9-5.8,2.9-9.8v-10c-2,7-7.2,10.5-15.7,10.5c-4.9,0-8.8-1.2-11.8-3.5s-5.2-5.5-6.6-9.4s-2-8.4-2-13.3V501
		c0-5.5,0.6-10.4,1.8-14.6c1.2-4.2,3.3-7.5,6.2-9.9c3-2.4,7.1-3.5,12.4-3.5c4.5,0,8,1.1,10.6,3.4c2.5,2.3,4.2,5.4,5.1,9.2v-11.5h25
		V562c0,11.6-2.7,19.9-8,24.9C946.1,591.9,937.7,594.4,926.2,594.4z M928.8,545.6c3.8,0,5.7-3.5,5.7-10.4v-34.9
		c0-1.9-0.5-3.8-1.6-5.7s-2.5-2.9-4.4-2.9c-2.4,0-3.8,0.9-4.4,2.6s-0.9,3.8-0.9,6v34.9c0,2.5,0.3,4.8,0.9,7
		C924.8,544.5,926.3,545.6,928.8,545.6z"/>
</g>
</svg>
