<?xml version="1.0" encoding="utf-8"?>
<!-- Generator: Adobe Illustrator 23.1.0, SVG Export Plug-In . SVG Version: 6.00 Build 0)  -->
<svg version="1.1" id="Capa_1" xmlns="http://www.w3.org/2000/svg" xmlns:xlink="http://www.w3.org/1999/xlink" x="0px" y="0px"
	 viewBox="0 0 1080 1080" style="enable-background:new 0 0 1080 1080;" xml:space="preserve">
<style type="text/css">
	.st0{fill:none;stroke:#5B2080;stroke-width:17;stroke-miterlimit:10;}
	.st1{fill:none;stroke:#5B2080;stroke-width:17;stroke-linecap:round;stroke-miterlimit:10;}
	.st2{fill:none;stroke:#5B2080;stroke-width:16;stroke-linecap:round;stroke-miterlimit:10;}
</style>
<path class="st0" d="M377.8,384.6H208.1c-72.2,0-130.7,58.5-130.7,130.7l0,0c0,60,40.4,110.5,95.5,125.9v46.7c0,4.3,4.9,6.7,8.3,4
	l59-46h137.6c72.2,0,130.7-58.5,130.7-130.7l0,0C508.4,443.1,449.9,384.6,377.8,384.6z"/>
<g>
	<line class="st1" x1="241.9" y1="468.1" x2="192.4" y2="517.6"/>
	<line class="st1" x1="241.9" y1="565.1" x2="193.4" y2="518.6"/>
</g>
<line class="st2" x1="313.4" y1="467.6" x2="271.4" y2="565.6"/>
<g>
	<line class="st1" x1="343" y1="565.2" x2="392.4" y2="515.8"/>
	<line class="st1" x1="343" y1="468.4" x2="391.4" y2="514.8"/>
</g>
<g>
	<path d="M569.9,581V460.7h36.6l10.1,73.4l10-73.4h37V581h-22v-86.7L627.9,581h-21.6l-14.6-86.7V581L569.9,581L569.9,581z"/>
	<path d="M673.8,472.2v-20.4h24.5v20.4H673.8z M673.8,581V478.5h24.5V581H673.8z"/>
	<path d="M781.8,582.1c-4,0-7.3-1-9.8-3s-4.5-5-6-9.1V581h-24.9V460.7H766v28.7c1.5-3.8,3.6-6.7,6.3-8.9s6.5-3.2,11.5-3.2
		c6.7,0,11.4,2.4,14.2,7.3c2.8,4.9,4.1,11.3,4.1,19.1v50.5c0,5.2-0.7,10-2.2,14.2c-1.4,4.2-3.7,7.5-6.6,10
		C790.2,580.9,786.4,582.1,781.8,582.1z M771.7,563.1c2.6,0,4.2-1.3,4.7-3.8s0.8-5.7,0.8-9.4v-40.1c0-3.8-0.3-6.9-0.8-9.5
		s-2.1-3.8-4.7-3.8c-2.6,0-4.3,1.3-4.8,3.9c-0.6,2.6-0.9,5.7-0.9,9.4v40.1c0,3.7,0.3,6.8,0.9,9.4
		C767.5,561.8,769.1,563.1,771.7,563.1z"/>
	<path d="M811,581V460.7h24.9V581L811,581L811,581z"/>
	<path d="M875.6,582.1c-20.4,0-30.6-10.6-30.6-31.8v-41.1c0-9.7,2.7-17.4,8.1-23.1c5.4-5.8,12.9-8.6,22.5-8.6
		c9.6,0,17.1,2.9,22.6,8.6c5.4,5.8,8.1,13.5,8.1,23.1v41.2C906.3,571.5,896,582.1,875.6,582.1z M875.6,563.3c2,0,3.5-0.7,4.4-2.2
		c0.9-1.5,1.3-3.4,1.3-5.6v-50.1c0-6-1.9-9-5.7-9s-5.7,3-5.7,9v50.1c0,2.3,0.4,4.2,1.3,5.6C872,562.5,873.5,563.3,875.6,563.3z"/>
	<path d="M942.9,598.8c-4.7,0-8.8-0.2-12.2-0.7c-3.4-0.5-6.4-1.3-9.1-2.6s-5.4-3-8.1-5.2l8.3-14.2c6,3.5,11.9,5.3,17.9,5.3
		c3.9,0,6.8-1.3,8.8-3.8s2.9-5.8,2.9-9.8v-10c-2,7-7.2,10.5-15.7,10.5c-4.9,0-8.8-1.2-11.8-3.5s-5.2-5.5-6.6-9.4s-2-8.4-2-13.3
		v-36.9c0-5.5,0.6-10.4,1.8-14.6c1.2-4.2,3.3-7.5,6.2-9.9c3-2.4,7.1-3.5,12.4-3.5c4.5,0,8,1.1,10.6,3.4c2.5,2.3,4.2,5.4,5.1,9.2
		v-11.6h25v87.9c0,11.6-2.7,19.9-8,24.9C962.9,596.3,954.4,598.8,942.9,598.8z M945.6,550c3.8,0,5.7-3.5,5.7-10.4v-34.9
		c0-1.9-0.5-3.8-1.6-5.7s-2.5-2.9-4.4-2.9c-2.4,0-3.8,0.9-4.4,2.6s-0.9,3.8-0.9,6v34.9c0,2.5,0.3,4.8,0.9,7
		C941.5,548.9,943.1,550,945.6,550z"/>
</g>
</svg>
